<svg width="64" height="64" viewBox="0 0 64 64" fill="none" xmlns="http://www.w3.org/2000/svg">
<path d="M38.945 42.2591C38.9449 43.0993 38.6963 43.9205 38.2306 44.6187C37.765 45.3168 37.1032 45.8603 36.3294 46.1803C35.5555 46.5003 34.7044 46.5824 33.884 46.4161C33.0637 46.2498 32.311 45.8426 31.7214 45.2462C31.1319 44.6498 30.7322 43.8911 30.5728 43.0663C30.4135 42.2415 30.5019 41.3877 30.8266 40.6134C31.1514 39.839 31.6979 39.179 32.397 38.7169C33.096 38.2549 33.9159 38.0117 34.7529 38.0181C35.8681 38.0253 36.9352 38.4755 37.7207 39.2702C38.5063 40.0649 38.9464 41.1396 38.945 42.2591Z" fill="#C59B7D"/>
<path d="M26.9828 17.8107C26.5141 17.6757 26.037 17.5719 25.5546 17.5H20.4123C19.8767 17.5632 19.3466 17.667 18.8267 17.8107C23.2414 19.059 22.0033 23.0711 22.0033 23.0711L18.8267 36.2629L19.9127 40.6946L24.2568 23.0329C24.2771 22.9458 24.3146 22.8636 24.3672 22.7914C24.4197 22.7192 24.4863 22.6583 24.5629 22.6125C24.6394 22.5667 24.7244 22.5369 24.8127 22.5248C24.901 22.5128 24.9908 22.5187 25.0768 22.5423C25.1637 22.5627 25.2457 22.6003 25.3178 22.653C25.39 22.7057 25.4509 22.7724 25.497 22.8492C25.543 22.9259 25.5733 23.0111 25.586 23.0998C25.5987 23.1885 25.5936 23.2788 25.5709 23.3654L20.586 43.5347L21.2159 46.1349H22.6169L28.3186 23.0111C28.3707 22.8454 28.4839 22.7059 28.6351 22.6212C28.7863 22.5364 28.964 22.5129 29.1318 22.5554C29.2997 22.5979 29.4451 22.7032 29.5382 22.8497C29.6313 22.9962 29.6651 23.1729 29.6327 23.3436L24.007 46.1567H26.2171C28.7802 36.4046 31.0554 27.7373 31.7613 25.1698C31.8374 24.8972 31.9188 24.6247 32.0003 24.3794C30.6699 20.2964 28.362 18.5357 26.9828 17.8107Z" fill="#C59B7D"/>
<path d="M45.1733 17.8107C49.5935 19.059 48.3554 23.0711 48.3554 23.0711L45.1733 36.2629L46.2594 40.6946L50.6035 23.0329C50.6237 22.9458 50.6613 22.8636 50.7138 22.7914C50.7664 22.7192 50.833 22.6583 50.9095 22.6125C50.9861 22.5667 51.0711 22.5369 51.1594 22.5248C51.2477 22.5128 51.3375 22.5187 51.4235 22.5423C51.5099 22.5633 51.5913 22.6014 51.6628 22.6543C51.7344 22.7073 51.7947 22.7741 51.8402 22.8507C51.8857 22.9274 51.9155 23.0124 51.9279 23.1008C51.9403 23.1892 51.9349 23.2792 51.9122 23.3654L46.9327 43.5347L47.5626 46.1349H48.9636L54.6653 23.0111C54.7174 22.8454 54.8306 22.7059 54.9818 22.6212C55.1329 22.5364 55.3106 22.5129 55.4785 22.5554C55.6464 22.5979 55.7918 22.7032 55.8849 22.8497C55.978 22.9962 56.0118 23.1729 55.9794 23.3436L50.3592 46.1567H52.5638C55.1214 36.4046 57.4075 27.7373 58.1134 25.1698C59.5959 19.7731 62.7725 17.9961 63.9998 17.5H46.759C46.2234 17.5637 45.6934 17.6676 45.1733 17.8107Z" fill="#C59B7D"/>
<path d="M45.1734 17.8107C45.6935 17.6676 46.2235 17.5637 46.7591 17.5H43.5933C44.1272 17.5626 44.6555 17.6665 45.1734 17.8107Z" fill="#FFFFFE"/>
<path d="M18.8263 17.8107C19.3463 17.667 19.8763 17.5632 20.4119 17.5L17.2407 17.5C17.7763 17.5632 18.3064 17.667 18.8263 17.8107Z" fill="#FFFFFE"/>
<path d="M25.5542 17.5C26.0401 17.5697 26.5208 17.6716 26.9932 17.8053C27.2647 17.6635 27.4765 17.5709 27.6448 17.5H25.5542Z" fill="#FFFFFE"/>
<path d="M41.9969 23.0711C41.9969 23.0711 40.7589 19.059 45.1736 17.8107C44.6556 17.6665 44.1273 17.5626 43.5934 17.5H37.6745C37.5008 17.5763 37.2781 17.6744 37.0175 17.8107C35.6436 18.5357 33.3358 20.2964 32 24.3521C32.0869 24.6028 32.1629 24.8972 32.2389 25.1425C32.9448 27.71 35.231 36.3773 37.7886 46.1294H39.9986L34.3784 23.3654C34.3557 23.2792 34.3503 23.1892 34.3627 23.1008C34.3751 23.0124 34.4049 22.9274 34.4504 22.8507C34.4959 22.7741 34.5562 22.7073 34.6278 22.6543C34.6993 22.6014 34.7807 22.5633 34.8671 22.5423C34.9531 22.5162 35.0436 22.5084 35.1327 22.5194C35.2219 22.5304 35.3078 22.5599 35.3849 22.606C35.4621 22.6522 35.5288 22.714 35.5808 22.7875C35.6328 22.861 35.669 22.9446 35.6871 23.0329L41.3942 46.1567H42.7952L43.4414 43.5619L38.4348 23.3654C38.412 23.2792 38.4067 23.1892 38.419 23.1008C38.4314 23.0124 38.4612 22.9274 38.5067 22.8507C38.5523 22.7741 38.6126 22.7073 38.6841 22.6543C38.7557 22.6014 38.8371 22.5633 38.9235 22.5423C39.0098 22.5153 39.1008 22.5068 39.1906 22.5174C39.2804 22.5279 39.367 22.5573 39.4448 22.6035C39.5225 22.6497 39.5898 22.7119 39.6422 22.7858C39.6946 22.8598 39.7309 22.944 39.7489 23.0329L44.093 40.7055L45.179 36.2629L41.9969 23.0711Z" fill="#FFFFFE"/>
<path d="M37.0176 17.8107C36.7624 17.6744 36.5398 17.5763 36.3823 17.5H28.3511C27.8971 17.5798 27.4476 17.6835 27.0044 17.8107C28.3837 18.5357 30.6915 20.2964 32.0219 24.3521C33.336 20.2964 35.6438 18.5357 37.0176 17.8107Z" fill="#FFFFFE"/>
<path d="M37.0172 17.8107C37.2778 17.6744 37.5004 17.5763 37.6742 17.5H36.3818C36.5393 17.5763 36.7619 17.6744 37.0172 17.8107Z" fill="#FFFFFE"/>
<path d="M26.9932 17.8053C27.44 17.6795 27.8931 17.5776 28.3507 17.5H27.6448C27.4764 17.5709 27.2647 17.6635 26.9932 17.8053Z" fill="#FFFFFE"/>
<path d="M46.292 46.1567H47.5572L46.9328 43.5565L46.292 46.1567Z" fill="#FFFFFE"/>
<path d="M44.1094 40.7055L45.1737 45.0174L46.238 40.6946L46.2434 40.711V40.6946L45.1737 36.2628L44.1094 40.7055Z" fill="#FFFFFE"/>
<path d="M44.0552 46.1567L43.4199 43.562L42.7954 46.1567H44.0552Z" fill="#FFFFFE"/>
<path d="M15.6443 23.0711C15.6443 23.0711 14.4063 19.059 18.8264 17.8107C18.3065 17.667 17.7764 17.5632 17.2408 17.5L0 17.5C1.22722 17.9961 4.4093 19.7731 5.89174 25.1698C6.59766 27.7373 8.87834 36.4046 11.4359 46.1567H13.646L8.0258 23.3654C8.00307 23.2792 7.99773 23.1892 8.01009 23.1008C8.02245 23.0124 8.05226 22.9274 8.09778 22.8507C8.1433 22.7741 8.20361 22.7073 8.27517 22.6543C8.34673 22.6014 8.4281 22.5633 8.51451 22.5423C8.60084 22.5162 8.69162 22.5084 8.78112 22.5193C8.87062 22.5302 8.95688 22.5597 9.03446 22.6058C9.11204 22.6519 9.17924 22.7137 9.23181 22.7872C9.28439 22.8607 9.32119 22.9444 9.3399 23.0329L15.0416 46.1567H16.4426L17.067 43.551L12.0876 23.3818C12.0649 23.2951 12.0598 23.2048 12.0725 23.1161C12.0852 23.0275 12.1155 22.9422 12.1615 22.8655C12.2076 22.7888 12.2685 22.7221 12.3407 22.6694C12.4129 22.6167 12.4948 22.579 12.5817 22.5587C12.6677 22.5326 12.7581 22.5248 12.8473 22.5357C12.9365 22.5467 13.0223 22.5762 13.0995 22.6224C13.1767 22.6686 13.2434 22.7304 13.2954 22.8039C13.3474 22.8774 13.3836 22.9609 13.4017 23.0493L17.7458 40.7055L18.8318 36.2792L15.6443 23.0711Z" fill="#FFFFFE"/>
<path d="M18.8266 36.2628L17.7568 40.6892L18.8266 45.0174L19.8909 40.6946L18.8266 36.2628Z" fill="#FFFFFE"/>
<path d="M19.9399 46.1567H21.2106L20.5807 43.5565L19.9399 46.1567Z" fill="#FFFFFE"/>
<path d="M17.713 46.1567L17.0669 43.5511L16.4424 46.1567H17.713Z" fill="#FFFFFE"/>
<path d="M19.891 40.6946L18.8267 45.0174L19.109 46.1567H19.9398L20.5806 43.5565L19.891 40.6946Z" fill="#FFFFFE"/>
<path d="M45.1733 45.0174L45.4503 46.1567H46.2865L46.9273 43.5565L46.2431 40.711L45.1733 45.0338V45.0174Z" fill="#FFFFFE"/>
<path d="M45.1733 45.0174V45.0338L46.2431 40.711L46.2377 40.6946L45.1733 45.0174Z" fill="#FFFFFE"/>
</svg>
